<?xml version="1.0" standalone="no"?>
<!DOCTYPE svg PUBLIC "-//W3C//DTD SVG 20010904//EN"
 "http://www.w3.org/TR/2001/REC-SVG-20010904/DTD/svg10.dtd">
<svg version="1.0" xmlns="http://www.w3.org/2000/svg"
 width="512.000000pt" height="512.000000pt" viewBox="0 0 512.000000 512.000000"
 preserveAspectRatio="xMidYMid meet">
<metadata>
Created by potrace 1.14, written by Peter Selinger 2001-2017
</metadata>
<g transform="translate(0.000000,512.000000) scale(0.100000,-0.100000)"
fill="#000000" stroke="none">
<path d="M1548 4805 c-22 -15 -39 -21 -43 -15 -15 25 -60 3 -201 -99 -113 -81
-170 -116 -223 -134 -129 -45 -278 -154 -377 -274 -28 -35 -99 -95 -197 -165
-185 -133 -184 -132 -168 -152 7 -9 11 -22 8 -29 -8 -21 23 -81 92 -181 l61
-90 0 -794 0 -794 -64 -112 c-35 -61 -98 -172 -141 -246 -139 -238 -145 -251
-145 -303 0 -67 26 -91 227 -206 90 -52 167 -99 171 -105 5 -6 17 -31 26 -56
27 -71 103 -187 169 -256 118 -126 270 -219 420 -254 90 -21 263 -40 370 -40
l68 0 190 -111 c221 -129 251 -142 290 -134 46 10 75 41 140 146 l61 99 606 0
c543 0 880 9 975 25 27 5 137 30 172 39 70 19 229 123 309 203 126 125 203
266 235 428 21 108 38 285 26 273 -4 -4 -9 -22 -11 -40 -2 -18 -6 -49 -10 -68
-4 -19 -8 -46 -9 -60 -8 -67 -51 -189 -73 -207 -9 -7 -13 -13 -9 -13 12 0 -16
-64 -37 -85 -12 -11 -39 -46 -60 -78 -22 -31 -46 -57 -53 -57 -8 0 -11 -5 -8
-10 3 -6 -8 -18 -25 -28 -18 -9 -44 -28 -59 -42 -14 -14 -42 -34 -61 -44 -19
-11 -41 -27 -48 -35 -8 -9 -11 -10 -7 -3 3 6 2 12 -4 12 -5 0 -11 -4 -13 -9
-1 -5 -12 -11 -23 -13 -11 -1 -26 -9 -34 -16 -12 -11 -15 -11 -22 0 -8 12 -13
4 -10 -15 1 -5 -7 -7 -16 -6 -10 2 -32 -4 -48 -13 -34 -18 -105 -29 -211 -33
-39 -1 -77 -6 -84 -10 -9 -6 -11 -4 -5 5 6 10 4 11 -6 4 -22 -13 -43 -14 -51
-1 -5 8 -8 7 -8 -4 0 -14 -10 -16 -67 -13 -79 5 -76 5 -128 1 -22 -1 -46 -6
-52 -10 -9 -6 -11 -3 -7 8 5 13 2 15 -22 9 -16 -4 -45 -8 -64 -8 -19 0 -38 -5
-42 -10 -5 -8 -8 -8 -8 0 0 8 -32 11 -99 10 -64 -1 -97 3 -93 9 3 5 -1 5 -9
-1 -8 -6 -21 -11 -29 -11 -8 0 -22 -2 -30 -4 -8 -2 -14 2 -12 9 2 9 -2 11 -10
5 -7 -4 -56 -9 -108 -9 -175 -3 -265 -3 -295 0 -16 1 -43 -1 -58 -6 -23 -6
-28 -4 -23 8 4 10 2 13 -6 8 -15 -9 -98 -13 -98 -5 0 4 46 88 103 187 256 446
381 654 393 654 8 0 14 5 14 11 0 6 6 9 14 6 10 -4 13 6 13 37 0 49 27 96 54
96 11 0 19 4 19 9 0 4 11 6 25 3 15 -2 25 0 25 7 0 7 5 9 10 6 6 -3 10 4 10
17 1 20 2 21 11 6 10 -18 39 -25 39 -9 0 4 11 6 25 3 21 -4 25 0 25 19 0 22 0
22 15 3 9 -12 18 -15 22 -9 5 6 13 10 18 11 43 3 98 19 102 30 9 24 25 15 17
-8 -6 -20 -5 -21 10 -9 17 15 22 71 6 71 -5 0 -10 -4 -10 -9 0 -6 -10 -8 -22
-6 -12 3 -26 1 -32 -3 -13 -10 -27 -9 -43 1 -8 5 -13 4 -13 -2 0 -6 -11 -13
-25 -17 -14 -3 -25 -10 -25 -14 0 -4 -11 -6 -25 -5 -14 2 -27 -1 -31 -6 -7
-13 -44 -11 -44 2 0 5 -5 7 -10 4 -6 -4 -8 -11 -5 -16 4 -5 -1 -9 -9 -9 -9 0
-16 -4 -16 -10 0 -5 -7 -7 -15 -4 -8 4 -22 1 -30 -6 -22 -19 -19 -8 25 72 55
101 54 140 -2 205 -43 50 -68 69 -154 113 l-51 27 29 11 c34 12 61 70 52 107
-3 14 -1 32 5 39 8 9 10 28 5 50 -5 30 -11 36 -31 36 -13 0 -36 -12 -50 -26
-22 -22 -25 -32 -20 -70 3 -31 0 -47 -10 -56 -10 -8 -13 -22 -9 -40 3 -16 1
-28 -5 -28 -11 0 -13 5 -29 69 -16 60 -49 91 -98 91 -23 0 -49 -8 -63 -19 -24
-19 -25 -19 -67 6 -23 14 -42 29 -42 34 0 5 -9 9 -20 9 -11 0 -33 8 -50 19
l-31 18 153 42 c199 55 218 61 218 69 0 17 -324 1248 -330 1255 -9 11 -361
-85 -367 -99 -2 -7 52 -227 121 -490 184 -704 196 -752 196 -763 0 -5 -44 16
-97 48 -54 32 -144 85 -201 117 -57 33 -118 69 -135 81 -18 12 -66 40 -107 63
-153 86 -199 121 -206 157 -3 18 -4 43 0 56 3 15 0 26 -13 34 -21 13 -47 119
-38 155 4 16 1 27 -12 35 -21 13 -46 111 -37 147 5 19 2 28 -9 32 -8 4 -22 31
-31 61 -16 55 -16 56 7 77 13 12 67 51 120 86 53 36 210 142 349 235 249 167
296 208 286 247 -2 10 1 21 8 26 21 16 105 34 130 28 16 -4 28 -1 33 8 11 19
117 49 144 41 13 -4 27 -1 39 10 22 20 119 47 143 39 10 -3 26 1 35 9 22 19
96 39 132 35 16 -1 37 4 47 13 24 21 106 43 138 37 14 -3 30 1 36 8 16 19 116
47 142 40 12 -3 28 1 38 10 21 19 126 47 147 39 8 -3 22 1 31 9 26 22 128 48
149 37 14 -7 21 -5 29 9 14 21 103 45 143 37 19 -4 30 -2 34 8 7 19 111 48
146 41 19 -3 30 -1 34 9 3 8 24 19 48 25 24 6 50 13 59 16 12 3 19 -8 28 -51
7 -30 9 -64 6 -76 -5 -13 -1 -25 9 -32 20 -15 49 -122 42 -152 -4 -14 0 -28 9
-35 20 -17 47 -117 40 -150 -4 -20 -2 -31 10 -37 20 -12 49 -118 40 -151 -4
-16 -1 -28 10 -36 19 -14 48 -121 41 -151 -4 -14 0 -28 9 -35 20 -16 48 -118
41 -151 -3 -18 1 -32 13 -43 21 -19 45 -117 36 -145 -4 -13 1 -27 13 -39 20
-20 48 -133 38 -151 -4 -6 1 -22 12 -36 25 -32 49 -140 34 -158 -8 -10 -6 -16
8 -24 27 -17 55 -120 42 -155 -8 -22 -7 -28 6 -30 8 -2 21 -19 28 -38 10 -29
13 58 13 505 1 781 -14 895 -145 1097 -120 186 -318 331 -517 378 -152 36
-277 40 -1242 40 l-941 0 -72 105 c-81 117 -91 123 -154 80z m112 -176 c55
-84 64 -109 40 -109 -11 0 -130 174 -130 190 0 5 7 10 15 10 9 0 42 -41 75
-91z m-530 -1714 c47 -17 293 -154 298 -167 2 -4 8 -8 13 -8 6 0 178 -97 382
-217 205 -119 422 -245 482 -280 61 -35 117 -68 125 -73 8 -5 75 -44 148 -87
74 -43 150 -88 170 -100 21 -13 56 -33 80 -45 24 -12 61 -38 83 -59 35 -32 39
-41 39 -82 0 -26 -4 -47 -8 -47 -5 0 -9 -7 -9 -15 0 -20 -45 -108 -60 -118 -7
-4 -13 -16 -13 -26 0 -11 -7 -22 -16 -25 -9 -4 -14 -9 -11 -12 3 -4 -5 -21
-18 -39 -14 -17 -25 -36 -25 -40 0 -4 -11 -23 -25 -41 -14 -18 -25 -37 -25
-43 0 -5 -8 -15 -17 -20 -10 -6 -14 -11 -10 -11 5 0 -2 -15 -15 -32 -13 -18
-22 -35 -22 -38 1 -3 -11 -27 -27 -55 -16 -27 -29 -45 -29 -40 0 6 -11 -10
-23 -35 -32 -63 -50 -94 -62 -102 -5 -4 -6 -8 -1 -8 5 0 2 -7 -5 -16 -17 -20
-34 -50 -54 -92 -8 -17 -20 -32 -25 -32 -12 0 -13 27 -1 34 5 3 32 47 61 98
79 139 84 147 134 231 25 43 46 80 46 84 0 4 6 14 14 22 7 9 28 43 46 76 17
33 35 65 40 70 4 6 19 31 33 56 43 79 52 93 70 118 23 32 22 37 -10 54 -39 20
-95 52 -142 81 -22 15 -43 26 -47 26 -3 0 -18 8 -32 19 -15 10 -48 30 -73 43
-78 44 -94 53 -109 64 -8 6 -40 25 -70 41 -30 16 -73 41 -95 55 -22 13 -47 27
-55 31 -8 4 -33 18 -55 31 -66 41 -117 67 -111 57 3 -5 20 -16 38 -25 18 -9
51 -28 73 -42 22 -13 47 -27 55 -31 8 -3 26 -14 40 -23 22 -15 58 -36 150 -87
14 -8 43 -25 65 -39 22 -13 47 -27 55 -31 8 -4 38 -22 67 -40 29 -18 55 -33
58 -33 4 0 19 -8 33 -19 24 -16 88 -53 149 -86 21 -11 21 -11 -18 -79 -21 -37
-39 -71 -39 -76 0 -31 -53 -11 -177 67 -29 18 -54 33 -57 33 -3 0 -29 15 -58
33 -29 19 -78 47 -108 64 -30 16 -74 42 -97 56 -24 15 -45 27 -49 27 -3 0 -18
8 -32 19 -15 10 -48 30 -73 43 -78 44 -94 53 -109 64 -8 6 -40 25 -70 41 -30
16 -74 42 -97 56 -24 15 -45 27 -49 27 -3 0 -18 8 -32 19 -15 10 -47 29 -72
43 -25 14 -63 35 -85 48 -26 15 -35 17 -26 6 7 -9 17 -16 22 -16 15 0 79 -44
79 -55 0 -5 -10 -23 -23 -39 l-23 -28 -39 22 c-22 12 -44 26 -50 30 -11 8 -95
55 -137 77 l-27 14 21 37 c11 20 22 38 23 40 4 4 93 -44 113 -60 7 -6 15 -9
18 -6 4 5 -60 48 -73 48 -2 0 -17 8 -31 19 -15 10 -48 30 -73 43 -78 44 -94
53 -109 64 -8 6 -40 25 -70 41 -30 16 -74 42 -97 56 -24 15 -45 27 -48 27 -2
0 -29 16 -59 35 -30 19 -59 35 -64 35 -4 0 -13 5 -19 11 -8 8 1 31 33 81 24
39 45 76 47 82 2 7 19 3 46 -11 23 -12 39 -18 36 -13 -3 5 -22 17 -42 26 -35
17 -36 17 -54 -7 -10 -13 -19 -28 -19 -33 0 -5 -6 -17 -14 -25 -7 -9 -27 -41
-43 -71 -16 -30 -42 -74 -56 -97 -15 -24 -27 -45 -27 -48 0 -2 -15 -28 -33
-57 -19 -29 -47 -78 -64 -108 -16 -30 -42 -74 -56 -97 -15 -24 -27 -45 -27
-49 0 -3 -8 -18 -19 -32 -10 -15 -29 -47 -43 -72 -14 -25 -34 -59 -44 -77 -19
-31 -110 -188 -144 -248 -10 -16 -38 -65 -64 -108 -25 -43 -46 -80 -46 -84 0
-4 -6 -14 -14 -22 -7 -9 -29 -46 -49 -83 -31 -57 -34 -67 -20 -72 9 -4 68 -37
132 -75 64 -38 132 -78 151 -89 19 -10 80 -45 135 -77 104 -61 299 -174 515
-300 69 -40 195 -113 280 -163 85 -49 252 -146 370 -215 118 -69 216 -130 218
-137 3 -9 -1 -11 -14 -6 -11 5 -23 9 -29 10 -24 5 -55 28 -50 37 4 5 3 9 -2 8
-14 -3 -73 23 -73 32 0 5 -9 9 -20 9 -11 0 -20 4 -20 8 0 10 -51 37 -63 34 -9
-3 -100 59 -105 71 -2 4 -13 7 -23 7 -11 0 -17 5 -14 10 4 6 -5 10 -19 10 -14
0 -26 4 -26 10 0 9 -15 19 -106 65 -21 11 -41 22 -44 25 -3 3 -23 14 -45 25
-22 11 -48 28 -59 37 -11 10 -26 18 -33 18 -8 0 -12 4 -9 9 3 4 -13 13 -34 20
-22 6 -40 16 -40 20 0 5 -17 16 -37 26 -75 33 -114 56 -119 70 -3 7 -11 12
-18 9 -7 -3 -25 7 -39 22 -15 15 -27 23 -27 19 0 -4 -11 0 -25 9 -14 9 -25 13
-25 9 0 -5 -4 -3 -8 2 -4 6 -20 16 -35 23 -15 7 -26 16 -23 21 4 5 -2 7 -13 4
-12 -3 -26 5 -40 23 -11 14 -21 24 -21 20 0 -7 -59 23 -70 35 -3 3 -20 11 -37
18 -18 8 -33 18 -33 23 0 5 5 6 12 2 6 -4 8 -3 4 4 -3 6 -18 9 -31 6 -17 -3
-27 1 -31 11 -4 8 -15 15 -25 15 -10 0 -19 4 -19 9 0 6 -33 26 -72 46 -84 42
-101 51 -125 65 -10 6 -31 15 -46 21 -23 9 -25 14 -16 26 7 8 8 13 3 12 -24
-4 -43 3 -69 26 -23 23 -26 31 -22 68 7 52 11 71 17 77 3 3 13 22 22 43 10 20
22 37 28 37 5 0 7 6 4 14 -3 7 6 26 19 42 13 16 27 39 31 52 4 12 12 20 17 17
5 -3 6 1 3 9 -3 9 5 26 20 41 14 14 22 25 18 25 -4 1 4 10 17 20 14 13 18 20
10 21 -11 0 -11 2 -1 6 6 2 10 9 6 14 -3 5 2 9 10 9 9 0 13 6 10 14 -3 8 4 23
15 33 12 9 21 23 21 29 0 13 69 147 80 154 4 3 10 15 14 28 4 12 14 22 22 22
8 0 12 5 9 10 -4 6 -1 17 5 25 6 8 9 19 5 25 -3 5 -1 10 4 10 6 0 11 7 11 15
0 8 4 15 9 15 5 0 13 9 16 20 3 11 22 43 41 71 19 28 34 55 34 61 0 5 14 29
30 53 17 24 30 50 30 58 0 8 9 26 20 40 11 14 20 28 20 32 0 3 16 31 36 62 19
31 40 66 45 79 4 13 13 24 19 24 5 0 10 9 10 20 0 10 8 23 18 29 9 5 16 11 14
13 -2 2 1 15 7 29 9 25 71 79 71 63 0 -5 5 -3 12 4 15 15 17 15 68 -3z m-120
-321 c8 -6 40 -25 71 -42 46 -24 84 -47 117 -68 8 -5 -30 -65 -43 -71 -8 -3
-13 -9 -10 -13 10 -17 -8 -40 -31 -40 -22 0 -24 -4 -22 -33 2 -36 -49 -137
-69 -137 -7 0 -37 16 -67 35 -30 19 -57 35 -60 35 -3 0 -32 17 -65 38 l-60 37
20 25 c10 14 19 29 19 34 0 5 6 17 14 25 8 9 26 40 41 69 15 28 32 52 37 52 5
0 22 -8 36 -19 15 -10 47 -29 72 -43 25 -14 62 -35 83 -47 21 -12 36 -17 33
-12 -4 5 -19 16 -34 24 -39 20 -90 49 -143 83 l-47 29 24 37 c26 40 32 40 84
2z m272 -157 c29 -19 80 -48 113 -66 33 -18 63 -35 67 -37 4 -3 -2 -22 -13
-44 -22 -42 -31 -43 -81 -8 -14 10 -29 18 -33 18 -4 0 -19 8 -33 19 -58 40
-167 94 -117 58 21 -16 4 -33 -20 -20 -12 7 -9 17 16 61 16 28 34 52 39 52 5
0 33 -15 62 -33z m-162 -97 c0 -5 -4 -10 -10 -10 -5 0 -10 5 -10 10 0 6 5 10
10 10 6 0 10 -4 10 -10z m73 -2 c-2 -5 3 -9 11 -9 9 -1 20 -2 25 -3 11 -1 98
-59 134 -88 15 -13 29 -34 32 -48 4 -23 3 -23 -9 -7 -7 9 -18 17 -25 17 -6 0
-10 5 -8 11 1 6 -6 13 -16 14 -10 2 -26 10 -35 18 -25 21 -72 31 -72 14 0 -7
6 -19 13 -26 10 -11 8 -11 -10 -2 -26 13 -28 22 -10 40 10 10 8 15 -7 26 -10
8 -22 12 -26 10 -4 -3 -15 4 -25 15 -17 19 -19 19 -32 2 -13 -15 -13 -15 -4 4
7 15 19 21 40 20 16 -1 27 -4 24 -8z m-359 -53 c30 -19 57 -35 60 -35 5 0 112
-66 125 -76 2 -1 -11 -28 -29 -58 -17 -31 -28 -61 -24 -67 4 -7 3 -9 -4 -6 -5
4 -22 -13 -37 -38 l-26 -45 -47 27 c-102 59 -197 115 -200 118 -2 2 13 34 33
72 38 71 65 106 65 86 0 -7 16 -15 35 -19 19 -3 33 -10 30 -14 -7 -12 22 -32
50 -34 14 0 28 -9 31 -18 3 -10 14 -19 25 -19 10 -1 24 -2 31 -3 6 -1 12 7 14
17 1 9 -2 15 -6 12 -5 -3 -15 4 -23 16 -10 13 -17 17 -22 10 -3 -6 -11 -9 -16
-5 -5 3 -7 10 -4 15 4 5 -3 9 -15 9 -12 0 -18 5 -15 10 6 10 -6 14 -39 10 -14
-1 -17 3 -12 15 4 11 2 16 -6 13 -14 -5 -50 27 -40 36 8 9 7 9 66 -29z m346
-41 c66 -46 141 -84 166 -84 20 0 17 -15 -12 -68 -36 -66 -37 -67 -83 -38 -22
14 -43 26 -47 26 -3 0 -18 8 -32 19 -41 28 -124 72 -128 68 -2 -2 8 -10 24
-18 15 -7 50 -28 79 -46 29 -18 55 -33 58 -33 4 0 26 -13 50 -30 24 -16 54
-34 67 -40 13 -5 41 -21 63 -35 44 -27 105 -63 141 -83 29 -16 30 -26 5 -60
-10 -15 -30 -48 -43 -73 -14 -25 -32 -56 -39 -70 -8 -13 -15 -25 -15 -27 -1
-1 -50 26 -110 61 -60 35 -117 66 -126 70 -23 8 -23 18 1 61 57 101 71 117 91
106 11 -6 20 -15 20 -20 0 -6 7 -10 16 -10 23 0 74 -32 74 -47 0 -7 11 -14 25
-14 14 -1 31 -2 37 -3 7 -1 14 6 15 14 3 15 -38 40 -64 40 -7 0 -13 5 -13 10
0 6 -9 10 -21 10 -15 0 -19 5 -15 15 5 13 -6 20 -18 13 -2 -2 -13 5 -24 15
-13 12 -22 15 -27 8 -3 -6 -11 -11 -18 -11 -8 0 -8 3 1 12 18 18 14 30 -7 23
-22 -7 -64 23 -54 38 4 6 0 8 -10 4 -9 -3 -23 0 -31 8 -8 8 -22 15 -30 15 -16
0 -40 16 -80 55 -11 11 -27 19 -34 17 -8 -2 0 19 18 50 17 29 36 63 42 76 6
12 14 22 17 22 3 0 35 -21 71 -46z m190 26 c14 -11 31 -20 39 -20 8 0 11 -6 7
-16 -3 -9 -2 -12 4 -9 12 8 60 -16 177 -87 21 -13 50 -30 66 -37 23 -12 25
-17 15 -30 -12 -15 -29 -43 -52 -86 -25 -45 -28 -48 -37 -34 -7 11 -13 9 -29
-11 -11 -14 -20 -29 -20 -33 0 -12 46 -3 64 12 13 11 17 11 22 -3 4 -10 13
-14 24 -11 10 3 27 -5 43 -19 28 -26 68 -38 73 -21 6 17 -30 55 -56 60 -14 3
-30 12 -37 21 -7 10 -19 14 -32 9 -17 -5 -20 -3 -14 12 3 10 15 30 25 45 10
14 18 30 18 35 0 5 5 14 12 21 11 11 45 -4 148 -66 19 -12 52 -31 73 -42 20
-11 37 -25 37 -30 0 -6 -21 -46 -46 -90 -47 -81 -68 -96 -94 -65 -7 8 -19 15
-28 15 -8 0 -23 10 -33 22 -11 11 -22 18 -26 15 -3 -4 -16 4 -28 17 -11 12
-29 22 -38 20 -9 -1 -17 4 -17 11 0 22 -20 28 -39 11 -15 -14 -21 -13 -61 8
-25 12 -59 31 -77 42 -76 47 -126 74 -134 74 -15 0 -10 19 17 68 44 79 51 84
81 54 25 -25 57 -22 61 6 2 12 0 22 -5 21 -22 -4 -43 2 -38 11 3 6 1 10 -4 10
-6 0 -11 6 -11 14 0 7 -20 32 -45 55 -46 42 -49 56 -5 21z m-60 -76 c0 -2 -9
0 -20 6 -11 6 -20 13 -20 16 0 2 9 0 20 -6 11 -6 20 -13 20 -16z m535 -84 c3
0 29 -16 59 -35 30 -19 59 -35 64 -35 5 0 14 -6 20 -13 9 -10 5 -22 -13 -49
l-25 -36 -90 54 c-49 30 -92 54 -96 54 -3 0 -19 9 -35 21 l-29 21 21 38 22 38
49 -29 c27 -16 51 -29 53 -29z m-747 -46 c17 -11 35 -27 38 -36 3 -9 11 -15
19 -12 8 3 29 -3 47 -13 61 -34 62 -37 23 -97 -19 -30 -35 -59 -35 -64 0 -5
-7 -15 -15 -22 -12 -10 -37 1 -139 60 l-125 72 22 39 c28 49 65 56 98 18 9
-10 25 -19 35 -19 16 0 17 -2 4 -10 -13 -8 -13 -10 1 -10 9 0 22 7 30 16 14
18 12 20 -53 55 -21 10 -38 24 -38 30 0 6 -7 9 -15 6 -12 -5 -12 -2 -3 18 12
26 1 29 106 -31z m-330 -43 c68 -40 122 -76 120 -80 -11 -26 -111 -192 -118
-196 -10 -6 -243 128 -247 142 -2 5 21 50 52 101 30 50 55 96 55 102 0 6 3 9
8 7 4 -2 62 -37 130 -76z m1292 -35 c8 -6 26 -17 39 -24 120 -68 161 -93 161
-99 0 -3 -9 -21 -21 -39 -20 -34 -36 -36 -69 -9 -8 7 -40 26 -70 42 -75 41
-130 74 -130 79 0 2 8 19 17 39 17 36 36 39 73 11z m-1023 -121 c123 -71 129
-77 98 -115 -7 -8 -27 -42 -44 -74 -57 -106 -41 -103 -171 -28 -63 37 -120 71
-127 75 -8 5 6 39 49 113 34 57 64 103 67 102 4 -2 61 -34 128 -73z m1028 0
c28 -16 61 -34 75 -42 14 -7 36 -21 48 -31 l24 -18 -21 -37 c-11 -19 -30 -53
-43 -74 -13 -21 -30 -50 -37 -66 -17 -32 -30 -30 -107 19 -29 19 -55 34 -58
34 -7 0 -106 62 -106 67 0 9 31 63 36 63 3 0 3 -4 -1 -9 -3 -6 3 -10 12 -10
10 0 30 -3 44 -6 19 -5 28 -2 32 9 5 12 0 16 -19 16 -14 0 -23 4 -19 9 9 16
-15 23 -32 9 -15 -12 -15 -11 -5 8 12 23 49 38 58 23 3 -5 12 -2 21 7 14 13
14 17 2 25 -18 11 -29 11 -29 0 0 -5 -7 -11 -15 -15 -13 -5 -14 -2 -4 17 7 12
19 32 27 44 14 22 15 23 41 4 14 -10 49 -31 76 -46z m-1441 -60 c61 -36 117
-69 125 -74 10 -7 0 -32 -50 -117 -34 -60 -64 -111 -66 -114 -2 -2 -13 1 -23
8 -11 7 -30 18 -42 25 -13 6 -30 17 -38 23 -8 6 -44 27 -79 45 -70 37 -81 51
-59 77 8 9 37 56 64 104 27 49 51 88 53 88 2 0 54 -29 115 -65z m969 41 c-4
-5 0 -7 9 -4 8 4 21 2 29 -4 11 -8 9 -8 -6 -4 -20 6 -20 6 0 -9 11 -9 25 -13
33 -10 8 3 10 0 6 -7 -5 -8 -2 -9 9 -5 10 4 16 2 14 -6 -1 -7 6 -11 15 -11 10
1 15 -3 12 -8 -4 -6 3 -8 17 -3 18 5 20 4 9 -4 -20 -14 -6 -24 32 -24 18 0 27
-2 21 -4 -26 -9 -13 -25 15 -19 20 5 23 4 12 -4 -8 -5 -12 -10 -8 -10 5 0
-104 -195 -117 -208 -2 -2 -59 29 -128 69 l-126 73 34 64 c19 34 41 72 49 84
14 19 16 20 22 5 3 -9 14 -17 23 -17 10 0 26 -8 37 -18 23 -21 62 -34 69 -22
9 14 -6 38 -27 43 -13 4 -17 10 -12 18 5 9 2 10 -11 5 -14 -5 -25 0 -38 16
-13 16 -20 19 -24 11 -2 -7 -9 -13 -14 -13 -5 0 -4 8 2 18 6 10 19 18 29 18
10 0 16 -5 13 -10z m715 -5 c23 -16 73 -45 147 -85 11 -6 31 -19 44 -28 25
-17 25 -18 8 -53 -9 -19 -21 -35 -27 -35 -6 0 -28 11 -50 25 -22 14 -42 25
-45 25 -2 0 -28 15 -58 33 -29 17 -61 37 -72 43 -23 13 -21 36 3 70 21 28 18
28 50 5z m-1009 -128 c64 -36 117 -67 119 -69 4 -3 -49 -102 -87 -164 -16 -25
-35 -44 -42 -42 -19 5 -239 133 -239 139 0 6 48 94 86 156 16 26 33 47 38 47
5 0 62 -30 125 -67z m965 38 c19 -11 53 -31 75 -45 22 -15 43 -26 45 -26 3 0
25 -13 49 -28 l44 -28 -119 -204 c-65 -113 -122 -211 -126 -217 -6 -9 -43 7
-132 59 -69 39 -126 72 -128 73 -1 1 18 37 43 79 25 42 45 80 45 84 1 4 9 17
20 30 20 24 32 22 80 -14 8 -6 42 -26 75 -44 63 -33 83 -48 52 -37 -13 5 -25
0 -38 -15 -22 -28 -25 -45 -4 -28 13 11 15 10 9 -6 -3 -12 4 -8 23 13 21 24
32 29 43 23 8 -6 19 -10 25 -10 12 0 -16 19 -80 55 -70 39 -85 48 -127 74
l-38 23 24 43 c14 24 36 61 50 84 14 22 26 44 26 49 0 7 20 32 27 32 1 0 18
-9 37 -19z m-1332 -125 l97 -56 -66 -114 c-71 -122 -68 -120 -123 -80 -8 6
-40 25 -70 41 -30 17 -71 40 -92 52 l-36 22 66 114 67 113 30 -17 c17 -10 74
-44 127 -75z m1012 14 c3 0 30 -16 60 -35 30 -19 60 -35 66 -35 20 0 13 -18
-55 -135 -38 -66 -51 -85 -58 -85 -11 0 -236 130 -242 140 -3 4 14 40 36 80
36 62 45 71 65 67 13 -2 24 0 24 4 0 5 7 9 15 9 21 0 19 18 -2 23 -10 2 -26
-4 -37 -12 -18 -16 -18 -15 -2 16 l16 33 55 -35 c30 -19 56 -35 59 -35z m640
41 c19 -11 53 -31 75 -45 22 -15 43 -26 46 -26 9 0 85 -52 85 -59 0 -3 -9 -21
-20 -39 l-20 -33 -43 24 c-23 14 -77 45 -120 71 -43 25 -82 46 -88 46 -5 0 1
18 13 40 13 22 26 40 30 40 4 0 23 -9 42 -19z m686 9 c0 -5 -4 -10 -10 -10 -5
0 -10 5 -10 10 0 6 5 10 10 10 6 0 10 -4 10 -10z m-165 -40 c3 -5 1 -10 -4
-10 -6 0 -11 5 -11 10 0 6 2 10 4 10 3 0 8 -4 11 -10z m-2692 -38 c82 -45 198
-116 203 -123 6 -10 -107 -209 -119 -209 -10 0 -247 139 -247 145 0 5 30 58
62 112 13 21 30 50 37 66 17 32 21 33 64 9z m1136 -44 c58 -34 113 -67 122
-73 15 -9 9 -23 -45 -116 l-62 -106 -122 71 c-67 40 -124 75 -128 78 -3 4 3
19 13 35 21 29 68 112 87 150 6 13 15 23 20 23 5 0 57 -28 115 -62z m1436 53
c3 -5 1 -12 -5 -16 -5 -3 -10 1 -10 9 0 18 6 21 15 7z m-445 -31 c14 -11 29
-20 34 -20 5 0 17 -6 25 -14 9 -7 43 -28 76 -46 33 -17 63 -34 68 -37 4 -2 -1
-16 -11 -31 -19 -27 -63 -102 -89 -154 -8 -16 -17 -28 -19 -28 -5 0 -27 12
-126 68 -37 21 -120 72 -127 78 -9 8 114 204 128 204 9 0 27 -9 41 -20z m400
10 c0 -5 -5 -10 -11 -10 -5 0 -7 5 -4 10 3 6 8 10 11 10 2 0 4 -4 4 -10z
m-1632 -192 c133 -77 242 -145 242 -150 0 -12 -120 -218 -126 -218 -5 0 -66
33 -124 68 -19 12 -56 33 -82 48 l-47 27 23 41 c35 62 61 107 86 149 12 20 19
37 16 37 -6 0 -106 -167 -106 -177 0 -4 -7 -15 -16 -25 -16 -17 -18 -17 -48 1
-17 10 -49 30 -72 43 -22 12 -64 37 -92 53 -29 17 -52 35 -52 40 0 6 9 21 20
35 11 14 20 29 20 34 0 5 6 17 14 25 8 9 26 40 41 69 21 40 32 52 44 47 9 -3
125 -69 259 -147z m-618 42 c28 -16 53 -30 55 -30 3 0 29 -16 59 -35 30 -19
59 -35 65 -35 25 0 17 -25 -40 -124 -62 -108 -69 -113 -109 -81 -8 7 -57 36
-107 65 -51 29 -93 57 -93 62 0 8 112 208 117 208 1 0 25 -13 53 -30z m1254
-134 c-4 -11 -22 -43 -40 -72 -19 -29 -34 -57 -34 -61 0 -4 -10 -20 -23 -35
l-22 -27 -110 65 c-60 36 -116 69 -124 73 -11 7 -3 28 39 102 29 52 57 99 62
106 7 8 44 -9 133 -60 105 -60 124 -75 119 -91z m524 19 c50 -30 95 -55 100
-55 5 0 17 -9 27 -20 17 -18 16 -22 -31 -102 -26 -46 -53 -93 -59 -104 -11
-21 -14 -20 -130 48 -66 38 -124 73 -128 78 -10 9 103 210 119 210 6 0 52 -25
102 -55z m-1463 -67 c22 -12 49 -28 60 -35 11 -7 35 -20 53 -29 17 -10 32 -22
32 -26 0 -10 -35 -75 -74 -137 -14 -22 -26 -45 -26 -50 0 -32 -51 -13 -177 66
-29 18 -56 33 -61 33 -5 0 -15 6 -21 14 -9 11 -5 25 19 65 16 29 30 54 30 56
0 2 14 26 31 54 l31 49 32 -19 c17 -10 49 -29 71 -41z m1153 -193 c-33 -58
-62 -105 -65 -105 -3 0 -61 32 -129 71 l-124 71 28 52 c16 28 40 69 54 91 13
22 27 48 31 57 5 14 26 5 136 -58 l129 -75 -60 -104z m-466 109 c62 -36 117
-69 121 -73 9 -9 -111 -221 -125 -221 -11 0 -85 38 -108 56 -8 6 -42 26 -75
44 -33 17 -62 34 -64 35 -5 6 123 225 131 225 4 0 58 -30 120 -66z m-424 -69
c50 -30 94 -55 98 -55 3 0 16 -8 29 -19 l24 -18 -60 -104 c-34 -57 -62 -105
-62 -106 -1 0 -55 30 -120 68 -65 38 -122 69 -128 69 -14 0 -13 2 36 84 25 42
45 79 45 82 0 10 32 54 40 54 4 0 48 -25 98 -55z m1120 -35 c50 -30 92 -57 92
-61 0 -7 -71 -131 -106 -186 l-14 -22 -122 71 c-68 39 -125 72 -127 74 -4 3
92 176 112 202 8 10 16 9 41 -6 17 -10 73 -43 124 -72z m-442 -43 c60 -35 117
-68 126 -73 15 -8 10 -22 -46 -116 -34 -59 -65 -110 -68 -113 -6 -6 -45 14
-117 59 -22 15 -43 26 -46 26 -4 0 -39 21 -94 57 -2 1 6 14 16 30 17 24 43 68
87 148 16 29 27 45 30 45 2 0 52 -28 112 -63z m-403 -81 c49 -32 113 -67 130
-73 10 -3 17 -8 15 -12 -4 -8 -120 -205 -124 -210 -4 -5 -20 3 -69 33 -22 14
-67 41 -100 60 -33 20 -66 39 -73 44 -11 7 0 32 48 115 l62 107 44 -25 c25
-14 55 -31 67 -39z m684 -82 c62 -37 118 -75 124 -86 6 -12 7 -18 1 -14 -5 3
-35 -40 -67 -97 -32 -56 -59 -103 -60 -105 -2 -2 -28 13 -58 32 -31 20 -58 36
-61 36 -3 0 -34 19 -71 41 l-65 41 23 42 c73 130 102 176 110 176 6 0 61 -30
124 -66z m204 7 c-11 -10 -18 -21 -14 -25 3 -3 1 -6 -5 -6 -16 0 -15 6 4 35 9
14 20 22 26 19 5 -3 0 -14 -11 -23z m-677 -48 c28 -15 58 -32 66 -39 8 -6 39
-24 68 -39 29 -15 54 -30 56 -34 3 -4 -23 -55 -57 -113 l-62 -105 -35 22 c-19
12 -60 35 -90 52 -30 17 -72 40 -92 52 l-37 22 30 52 c16 29 34 59 39 67 5 8
19 32 30 53 11 20 23 37 26 37 4 0 29 -12 58 -27z m656 -3 c0 -5 -7 -10 -16
-10 -8 0 -12 5 -9 10 3 6 10 10 16 10 5 0 9 -4 9 -10z m-25 -30 c3 -5 1 -10
-4 -10 -6 0 -11 5 -11 10 0 6 2 10 4 10 3 0 8 -4 11 -10z m-25 -44 c0 -2 -7
-9 -15 -16 -13 -11 -14 -10 -9 4 5 14 24 23 24 12z m-33 -53 c-8 -10 -17 -22
-18 -28 -5 -28 -24 -55 -37 -55 -13 0 -13 2 0 18 9 9 23 32 32 50 9 17 22 32
28 32 6 0 5 -7 -5 -17z m-227 -72 c19 -11 52 -30 73 -41 20 -11 37 -25 37 -30
0 -18 -112 -200 -124 -200 -9 0 -229 122 -244 135 -2 2 24 51 58 109 l62 106
52 -29 c28 -16 67 -38 86 -50z m156 -40 c-3 -4 -10 -21 -16 -36 -6 -15 -13
-25 -16 -22 -6 6 23 67 32 67 3 0 3 -4 0 -9z m-46 -91 c0 -5 -5 -10 -11 -10
-5 0 -7 5 -4 10 3 6 8 10 11 10 2 0 4 -4 4 -10z m-10 -23 c0 -2 -10 -12 -21
-23 -22 -19 -22 -19 -8 4 12 19 29 30 29 19z m-49 -70 c-10 -9 -11 -8 -5 6 3
10 9 15 12 12 3 -3 0 -11 -7 -18z"/>
<path d="M1140 2756 c0 -5 69 -46 78 -46 4 0 -10 11 -30 25 -36 24 -48 30 -48
21z"/>
<path d="M1250 2691 c24 -20 40 -26 40 -16 0 2 -15 12 -32 20 l-33 16 25 -20z"/>
<path d="M1304 2661 c4 -5 19 -16 34 -24 37 -19 74 -40 92 -53 8 -6 47 -28 85
-49 39 -21 82 -46 97 -56 14 -11 30 -19 34 -19 15 0 -54 43 -186 117 -14 8
-38 22 -55 32 -71 43 -106 61 -101 52z"/>
<path d="M1453 2513 c-18 -7 -16 -44 3 -71 18 -26 15 -35 -9 -26 -9 3 -14 11
-11 19 3 7 -1 15 -10 18 -19 7 -29 -19 -16 -43 18 -34 73 -41 89 -12 7 14 5
27 -10 51 -22 36 -23 41 -9 41 6 0 15 -12 20 -26 9 -22 13 -24 25 -14 9 7 18
11 21 8 7 -7 -36 -78 -47 -78 -20 0 -7 -19 31 -44 41 -27 60 -27 60 0 0 8 -9
14 -19 14 -22 0 -35 15 -26 30 4 6 13 5 25 -2 27 -17 37 -2 15 22 -10 11 -15
23 -11 27 4 4 16 -3 27 -17 16 -21 20 -23 29 -10 5 8 8 20 7 25 -4 13 -79 55
-88 50 -3 -3 -17 7 -29 20 -23 24 -41 29 -67 18z"/>
<path d="M1678 2442 c13 -10 40 -27 60 -37 21 -11 49 -27 64 -37 14 -10 30
-18 34 -18 8 0 -13 15 -81 57 -11 7 -38 22 -60 33 -35 18 -37 19 -17 2z"/>
<path d="M1645 2410 c-3 -5 -4 -10 0 -10 10 0 -34 -78 -47 -83 -9 -4 -8 -10 6
-21 27 -21 36 -20 36 5 0 16 4 19 18 14 19 -9 33 -9 80 1 17 3 32 2 32 -3 0
-12 -31 -55 -48 -69 -12 -8 -10 -13 12 -27 32 -22 36 -21 36 2 0 22 31 81 43
81 4 0 7 -7 7 -16 0 -11 6 -14 22 -9 21 7 21 7 -3 -31 -13 -22 -29 -44 -37
-49 -10 -8 4 -20 60 -53 79 -45 93 -50 85 -29 -3 7 2 22 10 32 13 18 13 16 7
-22 -8 -50 2 -54 48 -21 l30 21 -11 -21 c-7 -12 -16 -22 -21 -22 -6 0 -10 -4
-10 -10 0 -10 120 -80 138 -80 17 0 44 31 38 45 -3 8 2 16 10 19 19 7 18 40
-3 58 -37 30 -114 69 -126 62 -6 -4 -23 -16 -36 -28 l-24 -21 6 46 c6 43 4 47
-21 60 -15 7 -38 21 -52 30 -50 33 -165 94 -178 94 -7 0 -16 5 -20 11 -8 11
-67 54 -75 54 -3 0 -9 -4 -12 -10z m50 -50 c9 -15 -3 -30 -20 -24 -7 3 -11 12
-8 20 6 16 19 18 28 4z m215 -131 c9 -15 15 -18 24 -10 24 20 25 -1 3 -40 -25
-44 -32 -48 -40 -19 -3 13 -11 18 -20 14 -17 -6 -31 11 -22 26 5 8 11 7 21 -1
12 -10 17 -9 27 0 9 10 8 14 -5 22 -19 11 -24 29 -8 29 5 0 14 -9 20 -21z
m203 -95 c4 -4 -20 -57 -39 -83 -2 -1 -7 0 -13 4 -7 4 -4 20 9 46 20 37 30 46
43 33z m52 -43 c7 -12 -12 -24 -25 -16 -11 7 -4 25 10 25 5 0 11 -4 15 -9z
m-25 -57 c0 -11 -5 -14 -16 -10 -9 3 -18 6 -20 6 -3 0 -2 5 1 10 10 16 35 12
35 -6z"/>
<path d="M1885 2323 c6 -6 31 -22 57 -36 25 -14 64 -37 87 -51 51 -33 68 -34
21 -2 -45 30 -178 102 -165 89z"/>
<path d="M1550 2232 c0 -11 13 -30 29 -41 36 -26 37 -26 44 -2 3 12 -1 21 -12
25 -9 3 -26 13 -38 22 -22 16 -23 15 -23 -4z m31 -16 c5 3 9 0 9 -6 0 -15 -23
-7 -26 8 -1 7 0 8 3 2 2 -5 9 -8 14 -4z"/>
<path d="M2213 2076 c6 -15 -27 -74 -50 -91 -11 -8 2 -20 61 -53 42 -23 78
-42 81 -42 3 0 5 9 5 20 0 33 18 23 22 -12 2 -21 8 -33 18 -33 10 0 14 8 12
27 -2 19 2 28 17 33 30 9 28 58 -2 78 -30 20 -61 25 -62 11 0 -16 -38 -84 -47
-84 -5 0 -8 9 -8 21 0 15 -4 19 -19 14 -21 -6 -36 9 -26 25 5 8 11 7 21 -1 11
-9 18 -9 26 -1 9 9 7 15 -8 26 -10 8 -15 18 -11 23 5 4 16 -3 26 -15 15 -21
19 -22 30 -8 17 20 8 32 -39 56 -46 24 -54 25 -47 6z m157 -111 c0 -8 -6 -15
-14 -15 -17 0 -28 14 -19 24 12 12 33 6 33 -9z"/>
<path d="M1010 2531 c0 -17 40 -38 63 -33 4 1 7 -3 7 -9 0 -5 5 -7 10 -4 17
11 11 23 -24 44 -41 26 -56 26 -56 2z m50 -11 c0 -5 -5 -10 -11 -10 -5 0 -7 5
-4 10 3 6 8 10 11 10 2 0 4 -4 4 -10z"/>
<path d="M1271 2387 c-8 -8 0 -17 27 -33 20 -12 40 -20 44 -18 5 3 8 0 8 -7 0
-10 3 -10 12 -1 10 10 8 16 -7 30 -31 29 -71 42 -84 29z m59 -27 c0 -5 -4 -10
-10 -10 -5 0 -10 5 -10 10 0 6 5 10 10 10 6 0 10 -4 10 -10z"/>
<path d="M1368 2096 c-18 -14 -24 -27 -10 -25 4 1 14 1 22 0 13 -1 13 -2 0
-11 -11 -7 -8 -10 16 -10 16 0 35 -5 42 -12 19 -19 40 6 22 26 -7 9 -16 13
-21 11 -5 -3 -14 3 -21 15 -15 23 -26 25 -50 6z"/>
<path d="M1807 2094 c-4 -4 -7 -14 -7 -22 0 -9 3 -13 6 -10 3 3 16 -5 29 -18
29 -29 68 -33 63 -6 -2 9 -11 16 -21 16 -9 -1 -14 2 -11 7 5 8 -9 13 -21 7 -2
-2 -10 5 -17 15 -8 10 -17 15 -21 11z"/>
<path d="M2077 1919 c-4 -17 -3 -18 9 -8 12 10 13 9 8 -7 -4 -10 -3 -16 1 -12
5 5 14 -1 22 -12 13 -18 43 -18 43 1 0 4 -7 6 -15 3 -11 -5 -13 -2 -9 10 4 10
1 16 -9 16 -8 0 -17 7 -21 15 -8 21 -23 19 -29 -6z"/>
<path d="M1982 1837 c-13 -17 -11 -49 4 -43 6 2 21 -2 32 -10 18 -12 22 -12
36 2 20 19 20 28 1 20 -8 -3 -25 5 -39 19 -18 18 -27 21 -34 12z"/>
<path d="M2064 1779 c-4 -7 1 -16 10 -21 9 -5 14 -13 11 -19 -9 -14 18 -10 39
6 20 15 12 40 -10 31 -7 -3 -16 -1 -19 4 -8 13 -22 13 -31 -1z"/>
<path d="M1967 1753 c-12 -11 -8 -23 8 -23 8 0 15 7 15 15 0 16 -12 20 -23 8z"/>
<path d="M2136 1744 c-11 -7 -16 -17 -13 -21 4 -4 15 1 24 10 22 21 14 30 -11
11z"/>
<path d="M1994 1728 c-4 -6 0 -14 7 -19 12 -7 11 -9 -1 -9 -13 0 -13 -1 0 -10
9 -5 19 -5 24 0 5 5 15 3 24 -6 23 -23 38 -1 19 27 -17 24 -62 35 -73 17z"/>
<path d="M1687 1743 c-12 -11 -8 -19 24 -42 18 -13 29 -19 25 -12 -4 6 -3 11
2 11 6 0 13 7 16 16 4 10 1 14 -6 12 -7 -3 -19 1 -26 9 -15 14 -25 16 -35 6z"/>
<path d="M2346 1765 c-3 -9 0 -15 8 -15 8 0 16 -7 20 -15 6 -17 32 -20 41 -4
9 13 -26 40 -43 34 -7 -3 -10 0 -7 5 3 6 2 10 -3 10 -6 0 -12 -7 -16 -15z"/>
<path d="M2086 1511 c-8 -13 15 -51 31 -51 6 0 28 -9 48 -21 19 -12 42 -18 51
-15 14 5 12 11 -12 34 -16 15 -35 26 -41 24 -7 -2 -13 0 -13 6 0 5 -8 12 -17
16 -10 3 -23 8 -30 12 -6 3 -14 1 -17 -5z"/>
<path d="M2057 1442 c-18 -19 -17 -20 28 -42 31 -15 44 -27 41 -36 -4 -12 -1
-12 14 -4 11 6 20 18 20 27 0 9 -3 13 -7 10 -3 -4 -12 2 -20 13 -8 11 -19 20
-25 20 -6 0 -16 7 -22 16 -10 14 -14 13 -29 -4z"/>
<path d="M1785 1596 c-14 -10 -14 -14 7 -32 23 -19 40 -29 63 -34 6 -1 16 -7
23 -12 9 -8 16 -8 23 -1 12 12 -9 53 -27 53 -6 0 -17 6 -23 14 -17 20 -48 26
-66 12z"/>
<path d="M2606 1614 c-4 -9 -5 -17 -4 -18 2 -1 17 -9 34 -18 27 -15 33 -16 43
-4 8 9 8 17 2 20 -5 3 -12 0 -14 -6 -3 -8 -6 -5 -6 6 -1 12 -6 16 -16 13 -8
-4 -17 -1 -21 5 -5 7 -2 8 6 3 9 -5 11 -4 6 3 -10 17 -23 15 -30 -4z"/>
<path d="M3620 3997 c-16 -8 -24 -20 -22 -32 2 -11 95 -369 206 -795 l204
-775 33 3 c19 1 37 6 41 10 13 13 -405 1596 -422 1599 -8 2 -26 -3 -40 -10z"/>
<path d="M3150 3883 c-56 -11 -536 -145 -542 -151 -4 -4 65 -281 153 -616 87
-335 159 -614 159 -620 1 -36 16 -35 194 14 98 27 180 51 182 53 3 2 -49 211
-115 463 -66 252 -119 460 -117 462 14 13 111 30 127 21 53 -28 47 -89 -10
-118 l-38 -20 44 -168 c24 -92 45 -169 46 -170 2 -1 30 5 64 14 59 16 63 16
83 -2 25 -23 27 -76 3 -98 -10 -8 -39 -21 -65 -27 -27 -7 -48 -16 -48 -21 0
-19 72 -296 80 -309 7 -11 22 -10 87 9 147 43 242 114 291 219 24 50 27 69 27
157 0 88 -3 107 -27 157 -42 90 -133 166 -240 201 -16 6 -14 13 15 74 28 61
32 78 32 158 0 71 -5 100 -21 136 -50 107 -150 174 -274 183 -36 2 -76 2 -90
-1z"/>
<path d="M3523 2569 c-18 -5 -33 -11 -33 -14 0 -13 50 -186 58 -201 19 -35 49
-54 86 -56 20 -1 38 1 41 3 2 3 -1 24 -7 47 -8 31 -15 42 -29 42 -21 0 -26 26
-7 32 20 7 -3 83 -25 82 -12 -1 -20 10 -27 37 -6 22 -14 39 -18 38 -4 0 -22
-5 -39 -10z"/>
<path d="M3739 2544 c-114 -48 -76 -214 50 -214 27 0 81 33 81 49 0 16 -56 39
-72 30 -20 -11 -48 13 -48 40 0 23 26 46 35 31 3 -5 -1 -10 -9 -10 -15 0 -22
-30 -11 -42 9 -8 125 25 125 35 0 21 -46 70 -76 83 -18 8 -35 14 -36 13 -2 0
-19 -7 -39 -15z"/>
<path d="M4612 2530 c0 -14 2 -19 5 -12 2 6 2 18 0 25 -3 6 -5 1 -5 -13z"/>
<path d="M4612 2475 c0 -16 2 -22 5 -12 2 9 2 23 0 30 -3 6 -5 -1 -5 -18z"/>
<path d="M3160 2468 c-19 -5 -36 -11 -38 -13 -5 -5 49 -197 61 -215 20 -33 89
-58 114 -42 19 12 -3 79 -27 87 -22 7 -27 31 -8 37 20 7 -3 84 -24 80 -12 -2
-20 9 -28 38 -6 22 -12 40 -13 39 -1 0 -18 -5 -37 -11z"/>
<path d="M3408 2450 c-15 -9 -16 -15 -3 -58 8 -26 15 -55 15 -64 0 -28 -17
-21 -24 10 -26 107 -22 101 -64 90 -20 -6 -38 -11 -40 -13 -5 -4 29 -117 44
-147 26 -51 105 -58 145 -12 26 31 29 65 10 134 -15 55 -21 65 -42 67 -13 2
-32 -2 -41 -7z"/>
<path d="M3022 2438 c-17 -17 -15 -55 4 -66 40 -22 76 17 54 58 -12 22 -40 26
-58 8z"/>
<path d="M4612 2415 c0 -16 2 -22 5 -12 2 9 2 23 0 30 -3 6 -5 -1 -5 -18z"/>
<path d="M2873 2390 l-22 -9 20 -73 c43 -159 64 -188 140 -188 30 0 31 1 25
31 -3 17 -6 36 -6 40 0 5 -11 14 -25 19 -28 11 -32 25 -10 37 21 12 -1 83 -26
83 -13 0 -20 11 -25 35 -7 37 -25 44 -71 25z"/>
<path d="M3057 2357 c-28 -7 -37 -13 -33 -26 2 -9 14 -56 27 -104 l22 -89 36
7 c20 4 38 9 40 11 6 5 -37 185 -47 200 -5 7 -19 7 -45 1z"/>
<path d="M3470 2023 c0 -9 -108 -49 -122 -45 -12 3 -9 -12 5 -32 13 -18 47
-13 47 6 0 6 5 6 14 -1 11 -9 17 -8 29 3 8 8 17 12 21 9 3 -4 6 5 7 18 l0 24
11 -25 c6 -14 12 -20 15 -13 2 7 11 9 18 7 11 -5 12 -1 2 19 -6 14 -14 24 -16
21 -2 -2 -10 1 -18 7 -7 6 -13 7 -13 2z m-35 -42 c3 -5 1 -12 -5 -16 -5 -3
-10 1 -10 9 0 18 6 21 15 7z"/>
<path d="M4612 1995 c0 -16 2 -22 5 -12 2 9 2 23 0 30 -3 6 -5 -1 -5 -18z"/>
<path d="M3253 1957 c-24 -5 -43 -14 -43 -19 0 -5 -5 -6 -12 -2 -8 5 -9 0 -5
-17 5 -22 5 -22 -7 -6 -15 19 -31 24 -20 5 6 -10 5 -10 -7 -1 -16 13 -29 7
-44 -20 -12 -23 -29 -23 -34 -1 -2 12 2 15 13 11 18 -7 22 8 4 19 -18 11 -39
-25 -27 -47 10 -19 49 -27 49 -10 0 5 9 7 20 4 13 -3 22 1 26 12 4 10 9 13 13
6 11 -17 51 -1 51 20 0 11 5 19 10 19 6 0 10 -7 10 -15 0 -18 7 -19 50 -3 30
10 32 12 14 19 -17 7 -18 8 -1 8 21 1 18 25 -4 27 -8 1 -33 -3 -56 -9z"/>
<path d="M4068 1941 c-6 -15 -48 -23 -48 -10 0 7 -6 4 -14 -6 -8 -11 -12 -24
-9 -30 3 -5 0 -5 -6 1 -9 8 -23 9 -47 2 -19 -5 -44 -6 -56 -2 -12 4 -18 2 -14
-4 3 -5 -12 -14 -34 -20 -28 -7 -40 -6 -43 2 -3 7 -13 2 -26 -11 -12 -13 -30
-23 -41 -23 -10 0 -21 -6 -23 -12 -3 -8 -6 -6 -6 5 -1 21 -29 23 -37 2 -5 -12
-10 -13 -20 -4 -24 20 -16 -7 11 -38 l24 -28 1 35 1 35 14 -30 c7 -16 14 -25
14 -18 1 6 10 9 21 6 11 -3 20 -1 20 3 0 5 11 10 25 11 53 4 56 6 52 25 -6 23
2 23 20 1 13 -17 14 -16 8 5 -4 13 -2 22 4 22 6 0 11 -7 11 -15 0 -8 6 -15 13
-15 22 0 40 18 34 34 -4 9 -2 16 3 16 6 0 10 -7 10 -15 0 -21 37 -19 49 3 6 9
11 11 11 5 0 -20 20 -15 20 5 0 11 3 13 8 5 5 -7 19 -9 42 -4 27 6 34 12 32
27 -3 18 -3 18 12 -1 11 -15 15 -16 16 -5 0 8 -4 20 -8 26 -10 14 -40 25 -44
15z m12 -35 c0 -9 -30 -14 -35 -6 -4 6 3 10 14 10 12 0 21 -2 21 -4z m-120
-32 c0 -8 -5 -12 -10 -9 -6 4 -8 11 -5 16 9 14 15 11 15 -7z"/>
<path d="M4213 1873 c-22 -4 -33 -23 -14 -23 5 0 13 -9 16 -20 3 -11 10 -20
15 -20 6 0 6 10 0 25 -7 19 -6 25 4 25 17 0 27 -25 20 -45 -4 -8 -1 -15 5 -15
6 0 11 9 11 21 0 24 -17 60 -28 58 -4 -1 -17 -4 -29 -6z"/>
<path d="M4174 1840 c3 -14 6 -31 6 -37 0 -7 5 -13 10 -13 12 0 2 50 -13 65
-6 7 -8 2 -3 -15z"/>
<path d="M4085 1812 c3 -15 10 -31 15 -36 12 -12 30 2 23 19 -3 8 0 15 6 15 6
0 11 -7 11 -15 0 -8 5 -15 11 -15 6 0 8 9 3 23 -8 27 -3 23 -43 31 -32 6 -33
5 -26 -22z"/>
<path d="M3560 1805 c0 -11 -5 -15 -15 -11 -8 3 -15 1 -15 -5 0 -6 -5 -7 -12
-3 -6 4 -17 -1 -24 -10 -8 -12 -14 -14 -19 -6 -5 8 -11 8 -22 -1 -12 -10 -16
-10 -24 2 -6 10 -9 10 -9 2 0 -7 -7 -13 -16 -13 -11 0 -14 -6 -10 -17 6 -17 5
-17 -8 0 -20 26 -46 22 -46 -8 0 -28 29 -48 50 -35 8 5 18 6 24 3 5 -4 7 3 4
15 -7 25 7 30 16 6 3 -8 10 -12 16 -9 5 3 10 1 10 -4 0 -6 7 -11 15 -11 8 0
15 7 15 15 0 8 9 15 20 15 11 0 20 5 20 11 0 5 5 7 10 4 6 -3 10 3 10 14 0 12
5 21 10 21 6 0 10 -7 10 -15 0 -8 4 -15 10 -15 5 0 7 8 4 18 -5 13 -4 14 4 3
6 -8 8 -21 5 -30 -3 -12 0 -11 11 3 17 21 22 66 7 66 -5 0 -11 -5 -13 -11 -3
-8 -10 -6 -21 5 -16 16 -17 16 -17 1z m-40 -45 c0 -5 -4 -10 -10 -10 -5 0 -10
5 -10 10 0 6 5 10 10 10 6 0 10 -4 10 -10z m-156 -21 c-3 -6 0 -15 7 -20 9 -6
10 -9 2 -9 -15 0 -26 17 -18 30 3 6 8 10 11 10 3 0 2 -5 -2 -11z"/>
<path d="M3963 1796 c4 -10 -11 -17 -54 -26 -32 -7 -59 -16 -59 -20 0 -4 -11
-5 -25 -2 -14 2 -25 0 -25 -5 0 -5 -9 -10 -20 -11 -11 -1 -28 -2 -37 -3 -10
-1 -23 -6 -30 -11 -7 -5 -16 -7 -21 -4 -14 9 -33 -19 -26 -38 3 -9 15 -16 26
-16 15 0 18 5 14 16 -5 13 -4 14 7 5 15 -12 74 -5 83 10 3 5 10 7 15 4 5 -4 9
4 10 17 0 20 2 21 11 7 9 -13 18 -14 50 -6 33 8 38 13 33 31 -6 19 -5 20 8 4
17 -22 28 -23 21 -3 -4 8 -1 15 5 15 6 0 11 -8 11 -17 0 -15 2 -16 10 -3 5 8
10 12 10 9 0 -4 21 -2 46 5 25 6 45 15 45 19 -1 4 -1 14 -1 22 0 8 -9 15 -20
15 -11 0 -20 -4 -20 -10 0 -5 -7 -7 -16 -3 -9 3 -20 0 -25 -8 -7 -11 -9 -11
-9 4 0 9 -5 17 -11 17 -6 0 -9 -6 -6 -14z m72 -26 c-27 -12 -35 -12 -35 0 0 6
12 10 28 9 24 0 25 -1 7 -9z m-155 -36 c0 -8 -5 -12 -10 -9 -6 4 -8 11 -5 16
9 14 15 11 15 -7z m-130 -34 c0 -5 -7 -10 -15 -10 -8 0 -15 5 -15 10 0 6 7 10
15 10 8 0 15 -4 15 -10z"/>
<path d="M4605 1801 c-3 -5 -1 -12 5 -16 5 -3 10 1 10 9 0 18 -6 21 -15 7z"/>
<path d="M3617 1700 c-3 -13 -11 -20 -19 -17 -7 2 -21 0 -30 -5 -10 -5 -18 -5
-18 0 0 5 -7 9 -15 9 -8 0 -15 -6 -15 -12 0 -6 -6 -12 -12 -13 -7 0 -20 -3
-28 -5 -8 -3 -30 -8 -48 -12 -26 -6 -32 -12 -30 -29 2 -13 10 -21 23 -21 11 0
23 -4 28 -10 4 -6 11 -3 18 8 8 14 14 15 24 7 9 -8 14 -7 19 5 3 8 11 15 19
15 7 0 37 7 65 15 49 15 52 17 46 43 -9 38 -20 47 -27 22z"/>
<path d="M4595 1680 c-3 -5 -1 -10 4 -10 6 0 11 5 11 10 0 6 -2 10 -4 10 -3 0
-8 -4 -11 -10z"/>
<path d="M3377 1642 c-10 -15 10 -72 24 -72 12 0 11 13 0 26 -5 5 -11 20 -13
34 -2 18 -5 21 -11 12z"/>
<path d="M3307 1623 c-4 -3 -21 -8 -39 -10 -35 -4 -50 -13 -30 -20 6 -3 12
-11 12 -18 0 -8 5 -17 11 -21 9 -5 10 1 5 20 -7 29 9 36 19 7 6 -21 49 -26 64
-7 20 25 -20 72 -42 49z m17 -14 c-3 -6 -1 -15 6 -19 8 -5 5 -9 -9 -13 -23 -6
-28 12 -9 31 15 15 21 16 12 1z"/>
<path d="M3164 1574 c5 -14 4 -15 -9 -4 -22 19 -30 5 -18 -32 10 -29 11 -30
12 -9 1 23 2 24 21 6 11 -10 20 -13 20 -7 0 5 9 8 20 5 27 -7 38 23 16 45 -16
16 -18 16 -32 -2 -12 -17 -14 -18 -14 -3 0 9 -5 17 -11 17 -6 0 -8 -7 -5 -16z
m56 -14 c0 -5 -5 -10 -11 -10 -5 0 -7 5 -4 10 3 6 8 10 11 10 2 0 4 -4 4 -10z"/>
<path d="M3063 1540 c-15 -14 -23 -16 -26 -7 -4 9 -6 9 -6 -1 -1 -7 -5 -11
-10 -8 -5 4 -32 1 -60 -6 -43 -10 -51 -15 -51 -35 0 -13 5 -23 11 -23 5 0 7
-4 4 -10 -9 -14 19 -12 33 2 7 7 12 20 12 31 0 17 2 17 15 3 15 -15 45 -12 45
4 0 5 9 6 19 3 13 -3 21 1 24 14 4 15 5 14 6 -4 1 -31 19 -29 27 2 7 27 0 55
-14 55 -4 0 -18 -9 -29 -20z m-123 -61 c0 -6 -4 -7 -10 -4 -5 3 -10 11 -10 16
0 6 5 7 10 4 6 -3 10 -11 10 -16z"/>
<path d="M3745 1370 c-4 -6 -10 -8 -15 -5 -16 10 -40 -7 -41 -29 -1 -16 -2
-17 -6 -3 -3 12 -11 15 -29 11 -14 -4 -24 -2 -24 5 0 6 -5 11 -11 11 -6 0 -8
-7 -5 -17 4 -10 4 -15 1 -11 -4 3 -21 0 -38 -7 -32 -13 -39 -15 -57 -15 -5 0
-10 -10 -11 -22 -1 -22 -2 -20 -15 21 -4 11 -8 11 -22 -3 -10 -9 -24 -16 -31
-16 -7 0 -11 -10 -9 -22 2 -15 10 -23 23 -23 11 0 19 6 18 13 -3 14 14 17 19
3 2 -5 16 -7 31 -4 19 4 26 10 23 19 -3 8 -1 14 3 14 5 0 12 -6 14 -12 3 -7 6
-2 7 12 1 24 1 24 15 7 12 -17 17 -18 52 -6 21 7 42 12 47 11 4 -2 14 2 20 8
7 5 16 6 21 2 4 -4 5 3 2 16 -7 30 6 28 23 -3 23 -43 46 -26 35 25 -6 29 -28
40 -40 20z"/>
<path d="M3385 1290 c-8 -13 5 -60 17 -60 6 0 8 7 4 15 -3 8 -1 15 4 15 6 0
10 9 10 20 0 20 -24 28 -35 10z"/>
<path d="M3296 1255 c-13 -10 -24 -11 -37 -4 -15 7 -19 6 -19 -6 0 -8 -7 -15
-15 -15 -8 0 -15 -6 -15 -14 0 -10 -7 -12 -22 -8 -20 5 -21 6 -3 12 14 5 15 9
6 14 -20 12 -33 -8 -25 -38 6 -26 9 -27 43 -21 20 4 37 10 39 15 2 4 12 5 24
2 17 -4 19 -2 13 17 -4 12 -2 21 4 21 6 0 11 -7 11 -15 0 -8 5 -15 11 -15 6 0
8 9 4 23 -5 19 -4 20 5 5 6 -10 19 -18 28 -18 13 0 14 2 4 9 -7 4 -15 16 -16
26 -4 25 -17 28 -40 10z"/>
<path d="M3350 1240 c0 -5 7 -7 15 -4 8 4 15 8 15 10 0 2 -7 4 -15 4 -8 0 -15
-4 -15 -10z"/>
<path d="M3550 1211 c0 -6 -7 -8 -15 -5 -8 3 -20 2 -27 -2 -7 -5 -22 -8 -33
-9 -15 0 -20 -7 -20 -30 0 -29 2 -30 40 -28 22 2 47 6 55 9 8 4 22 8 30 8 10
1 15 11 15 31 0 23 -5 31 -22 33 -13 2 -23 -1 -23 -7z m24 -16 c-4 -9 0 -15 7
-16 8 0 3 -5 -10 -10 -31 -12 -34 -8 -15 19 18 25 26 29 18 7z m-49 -24 c-3
-6 -11 -8 -17 -5 -6 4 -5 9 3 15 16 10 23 4 14 -10z m-35 -17 c0 -16 -16 -19
-25 -4 -8 13 4 32 16 25 5 -4 9 -13 9 -21z"/>
<path d="M3400 1164 c0 -8 5 -12 10 -9 13 8 13 -1 0 -26 -9 -16 -7 -19 9 -19
11 0 23 5 26 10 3 6 2 10 -3 10 -5 0 -7 11 -4 25 3 20 0 25 -17 25 -12 0 -21
-6 -21 -16z"/>
</g>
</svg>
